<mxfile host="app.diagrams.net" modified="2023-09-20T22:31:42.534Z" agent="Mozilla/5.0 (Macintosh; Intel Mac OS X 10_15_7) AppleWebKit/605.1.15 (KHTML, like Gecko) Version/16.6 Safari/605.1.15" etag="NtPomm5swyDsXnVAlchN" version="21.8.0" type="device">
  <diagram id="C5RBs43oDa-KdzZeNtuy" name="Page-1">
    <mxGraphModel dx="1026" dy="615" grid="1" gridSize="10" guides="1" tooltips="1" connect="1" arrows="1" fold="1" page="1" pageScale="1" pageWidth="827" pageHeight="1169" math="0" shadow="0">
      <root>
        <mxCell id="WIyWlLk6GJQsqaUBKTNV-0" />
        <mxCell id="WIyWlLk6GJQsqaUBKTNV-1" parent="WIyWlLk6GJQsqaUBKTNV-0" />
        <mxCell id="f2hDSx5OTErYnQ3AnIyO-0" value="VectorNav VN310" style="rounded=1;whiteSpace=wrap;html=1;fillColor=#dae8fc;strokeColor=#6c8ebf;" parent="WIyWlLk6GJQsqaUBKTNV-1" vertex="1">
          <mxGeometry x="60" y="70" width="120" height="60" as="geometry" />
        </mxCell>
        <mxCell id="f2hDSx5OTErYnQ3AnIyO-1" value="Novatel PwrPak7" style="rounded=1;whiteSpace=wrap;html=1;fillColor=#dae8fc;strokeColor=#6c8ebf;" parent="WIyWlLk6GJQsqaUBKTNV-1" vertex="1">
          <mxGeometry x="250" y="70" width="120" height="60" as="geometry" />
        </mxCell>
        <mxCell id="f2hDSx5OTErYnQ3AnIyO-2" value="Novatel PwrPak7" style="rounded=1;whiteSpace=wrap;html=1;fillColor=#dae8fc;strokeColor=#6c8ebf;" parent="WIyWlLk6GJQsqaUBKTNV-1" vertex="1">
          <mxGeometry x="440" y="70" width="120" height="60" as="geometry" />
        </mxCell>
        <mxCell id="f2hDSx5OTErYnQ3AnIyO-3" value="/vectornav/raw/common &lt;br&gt;[vectornav_msgs/CommonGroup]" style="endArrow=classic;html=1;rounded=0;exitX=0.5;exitY=1;exitDx=0;exitDy=0;entryX=0.087;entryY=-0.027;entryDx=0;entryDy=0;entryPerimeter=0;" parent="WIyWlLk6GJQsqaUBKTNV-1" source="f2hDSx5OTErYnQ3AnIyO-0" target="Y9iKx76CtUBVopKiLYjm-1" edge="1">
          <mxGeometry width="50" height="50" relative="1" as="geometry">
            <mxPoint x="390" y="340" as="sourcePoint" />
            <mxPoint x="120" y="450" as="targetPoint" />
          </mxGeometry>
        </mxCell>
        <mxCell id="f2hDSx5OTErYnQ3AnIyO-4" value="/novatel_top/bestpos&lt;br&gt;[novatel_oem7_msgs/BESTPOS]&lt;br&gt;/novatel_top/bestgnsspos&lt;br&gt;[novatel_oem7_msgs/BESTPOS]&lt;br&gt;/novatel_top/bestvel&lt;br&gt;[novatel_oem7_msgs/BESTVEL]&lt;br&gt;/novatel_top/bestgnssvel&lt;br&gt;[novatel_oem7_msgs/BESTVEL]&lt;br&gt;/novatel_top/inspva&lt;br&gt;[novatel_oem7_msgs/INSPVA]&lt;br&gt;/novatel_top/heading2&lt;br&gt;[novatel_oem7_msgs/HEADING2]&lt;br&gt;/novatel_top/rawimu&lt;br&gt;[novatel_oem7_msgs/RAWIMU]&lt;br&gt;/novatel_top/rawimux&lt;br style=&quot;border-color: var(--border-color);&quot;&gt;[sensor_msgs/Imu]" style="endArrow=classic;html=1;rounded=0;exitX=0.5;exitY=1;exitDx=0;exitDy=0;entryX=0.5;entryY=0;entryDx=0;entryDy=0;" parent="WIyWlLk6GJQsqaUBKTNV-1" target="Y9iKx76CtUBVopKiLYjm-1" edge="1">
          <mxGeometry width="50" height="50" relative="1" as="geometry">
            <mxPoint x="309.5" y="130" as="sourcePoint" />
            <mxPoint x="310" y="450" as="targetPoint" />
          </mxGeometry>
        </mxCell>
        <mxCell id="f2hDSx5OTErYnQ3AnIyO-5" value="/novatel_bottom/bestpos&lt;br&gt;[novatel_oem7_msgs/BESTPOS]&lt;br&gt;/novatel_bottom/bestgnsspos&lt;br&gt;[novatel_oem7_msgs/BESTPOS]&lt;br&gt;/novatel_bottom/bestvel&lt;br&gt;[novatel_oem7_msgs/BESTVEL]&lt;br&gt;/novatel_bottom/bestgnssvel&lt;br&gt;[novatel_oem7_msgs/BESTVEL]&lt;br&gt;/novatel_bottom/inspva&lt;br&gt;[novatel_oem7_msgs/INSPVA]&lt;br&gt;/novatel_bottom/heading2&lt;br&gt;[novatel_oem7_msgs/HEADING2]&lt;br&gt;/novatel_bottom/rawimu&lt;br&gt;[novatel_oem7_msgs/RAWIMU]&lt;br&gt;/novatel_bottom/rawimux&lt;br style=&quot;border-color: var(--border-color);&quot;&gt;[sensor_msgs/Imu]" style="endArrow=classic;html=1;rounded=0;exitX=0.5;exitY=1;exitDx=0;exitDy=0;entryX=0.915;entryY=0;entryDx=0;entryDy=0;entryPerimeter=0;" parent="WIyWlLk6GJQsqaUBKTNV-1" target="Y9iKx76CtUBVopKiLYjm-1" edge="1">
          <mxGeometry width="50" height="50" relative="1" as="geometry">
            <mxPoint x="499.5" y="130" as="sourcePoint" />
            <mxPoint x="500" y="450" as="targetPoint" />
          </mxGeometry>
        </mxCell>
        <mxCell id="f2hDSx5OTErYnQ3AnIyO-6" value="GNSS/INS Sensors" style="swimlane;whiteSpace=wrap;html=1;fillColor=#dae8fc;strokeColor=#6c8ebf;" parent="WIyWlLk6GJQsqaUBKTNV-1" vertex="1">
          <mxGeometry x="10" y="10" width="610" height="410" as="geometry" />
        </mxCell>
        <mxCell id="f2hDSx5OTErYnQ3AnIyO-8" value="Powertrain Sensor Data" style="rounded=1;whiteSpace=wrap;html=1;fillColor=#fad7ac;strokeColor=#b46504;" parent="WIyWlLk6GJQsqaUBKTNV-1" vertex="1">
          <mxGeometry x="1200" y="70" width="120" height="60" as="geometry" />
        </mxCell>
        <mxCell id="f2hDSx5OTErYnQ3AnIyO-9" value="Vehicle Sensor Data" style="rounded=1;whiteSpace=wrap;html=1;fillColor=#fad7ac;strokeColor=#b46504;" parent="WIyWlLk6GJQsqaUBKTNV-1" vertex="1">
          <mxGeometry x="1000" y="70" width="120" height="60" as="geometry" />
        </mxCell>
        <mxCell id="f2hDSx5OTErYnQ3AnIyO-10" value="/vehicle_data&lt;br&gt;[autonoma_msgs/VehicleData]" style="endArrow=classic;html=1;rounded=0;exitX=0.5;exitY=1;exitDx=0;exitDy=0;entryX=0.16;entryY=0;entryDx=0;entryDy=0;entryPerimeter=0;" parent="WIyWlLk6GJQsqaUBKTNV-1" target="Y9iKx76CtUBVopKiLYjm-8" edge="1">
          <mxGeometry width="50" height="50" relative="1" as="geometry">
            <mxPoint x="1059.5" y="130" as="sourcePoint" />
            <mxPoint x="1059.5" y="450" as="targetPoint" />
          </mxGeometry>
        </mxCell>
        <mxCell id="f2hDSx5OTErYnQ3AnIyO-11" value="/powertrain_data&lt;br&gt;[autonoma_msgs/PowertrainData]" style="endArrow=classic;html=1;rounded=0;exitX=0.5;exitY=1;exitDx=0;exitDy=0;entryX=0.464;entryY=-0.033;entryDx=0;entryDy=0;entryPerimeter=0;" parent="WIyWlLk6GJQsqaUBKTNV-1" target="Y9iKx76CtUBVopKiLYjm-8" edge="1">
          <mxGeometry width="50" height="50" relative="1" as="geometry">
            <mxPoint x="1259.5" y="130" as="sourcePoint" />
            <mxPoint x="1259.5" y="450" as="targetPoint" />
          </mxGeometry>
        </mxCell>
        <mxCell id="Y9iKx76CtUBVopKiLYjm-0" value="Vehicle Sensors" style="swimlane;whiteSpace=wrap;html=1;fillColor=#fad7ac;strokeColor=#b46504;" parent="WIyWlLk6GJQsqaUBKTNV-1" vertex="1">
          <mxGeometry x="940" y="10" width="440" height="410" as="geometry" />
        </mxCell>
        <mxCell id="Y9iKx76CtUBVopKiLYjm-6" value="Race Control Interface" style="swimlane;whiteSpace=wrap;html=1;fillColor=#fff2cc;strokeColor=#d6b656;" parent="WIyWlLk6GJQsqaUBKTNV-1" vertex="1">
          <mxGeometry x="670" y="10" width="230" height="410" as="geometry" />
        </mxCell>
        <mxCell id="Y9iKx76CtUBVopKiLYjm-3" value="Race Control" style="rounded=1;whiteSpace=wrap;html=1;fillColor=#fff2cc;strokeColor=#d6b656;" parent="Y9iKx76CtUBVopKiLYjm-6" vertex="1">
          <mxGeometry x="55" y="60" width="120" height="60" as="geometry" />
        </mxCell>
        <mxCell id="Y9iKx76CtUBVopKiLYjm-4" value="/race_control&lt;br&gt;[autonoma_msgs/RaceControl]" style="endArrow=classic;html=1;rounded=0;exitX=0.5;exitY=1;exitDx=0;exitDy=0;entryX=0.5;entryY=0;entryDx=0;entryDy=0;" parent="Y9iKx76CtUBVopKiLYjm-6" target="Y9iKx76CtUBVopKiLYjm-7" edge="1">
          <mxGeometry width="50" height="50" relative="1" as="geometry">
            <mxPoint x="114.5" y="120" as="sourcePoint" />
            <mxPoint x="114.5" y="440" as="targetPoint" />
          </mxGeometry>
        </mxCell>
        <mxCell id="Y9iKx76CtUBVopKiLYjm-11" value="Low-level State Machine" style="rounded=1;whiteSpace=wrap;html=1;fillColor=#fad9d5;strokeColor=#ae4132;" parent="WIyWlLk6GJQsqaUBKTNV-1" vertex="1">
          <mxGeometry x="1680" y="71" width="120" height="60" as="geometry" />
        </mxCell>
        <mxCell id="Y9iKx76CtUBVopKiLYjm-12" value="Vehicle commands" style="rounded=1;whiteSpace=wrap;html=1;fillColor=#fad7ac;strokeColor=#b46504;" parent="WIyWlLk6GJQsqaUBKTNV-1" vertex="1">
          <mxGeometry x="1480" y="71" width="120" height="60" as="geometry" />
        </mxCell>
        <mxCell id="Y9iKx76CtUBVopKiLYjm-13" value="/vehicle_inputs&lt;br&gt;[autonoma_msgs/VehicleInputs]" style="endArrow=classic;html=1;rounded=0;entryX=0.5;entryY=1;entryDx=0;entryDy=0;exitX=0.215;exitY=0;exitDx=0;exitDy=0;exitPerimeter=0;" parent="WIyWlLk6GJQsqaUBKTNV-1" source="Y9iKx76CtUBVopKiLYjm-23" target="Y9iKx76CtUBVopKiLYjm-12" edge="1">
          <mxGeometry width="50" height="50" relative="1" as="geometry">
            <mxPoint x="1540" y="460" as="sourcePoint" />
            <mxPoint x="1539" y="448" as="targetPoint" />
          </mxGeometry>
        </mxCell>
        <mxCell id="Y9iKx76CtUBVopKiLYjm-14" value="/to_raptor&lt;br&gt;[autonoma_msgs/ToRaptor]" style="endArrow=classic;html=1;rounded=0;entryX=0.5;entryY=1;entryDx=0;entryDy=0;exitX=0.818;exitY=-0.017;exitDx=0;exitDy=0;exitPerimeter=0;" parent="WIyWlLk6GJQsqaUBKTNV-1" source="Y9iKx76CtUBVopKiLYjm-23" target="Y9iKx76CtUBVopKiLYjm-11" edge="1">
          <mxGeometry width="50" height="50" relative="1" as="geometry">
            <mxPoint x="1730" y="390" as="sourcePoint" />
            <mxPoint x="1640" y="260" as="targetPoint" />
          </mxGeometry>
        </mxCell>
        <mxCell id="Y9iKx76CtUBVopKiLYjm-15" value="Inputs" style="swimlane;whiteSpace=wrap;html=1;" parent="WIyWlLk6GJQsqaUBKTNV-1" vertex="1">
          <mxGeometry x="1420" y="11" width="440" height="410" as="geometry" />
        </mxCell>
        <mxCell id="Y9iKx76CtUBVopKiLYjm-22" value="Autonomous Driving Software" style="swimlane;horizontal=0;whiteSpace=wrap;html=1;" parent="WIyWlLk6GJQsqaUBKTNV-1" vertex="1">
          <mxGeometry x="10" y="450" width="1850" height="190" as="geometry" />
        </mxCell>
        <mxCell id="Y9iKx76CtUBVopKiLYjm-1" value="Localization" style="rounded=1;whiteSpace=wrap;html=1;fillColor=#dae8fc;strokeColor=#6c8ebf;" parent="Y9iKx76CtUBVopKiLYjm-22" vertex="1">
          <mxGeometry x="70" y="105" width="460" height="60" as="geometry" />
        </mxCell>
        <mxCell id="Y9iKx76CtUBVopKiLYjm-7" value="Planning" style="rounded=1;whiteSpace=wrap;html=1;fillColor=#fff2cc;strokeColor=#d6b656;" parent="Y9iKx76CtUBVopKiLYjm-22" vertex="1">
          <mxGeometry x="665" y="105" width="220" height="60" as="geometry" />
        </mxCell>
        <mxCell id="Y9iKx76CtUBVopKiLYjm-8" value="Control" style="rounded=1;whiteSpace=wrap;html=1;fillColor=#ffe6cc;strokeColor=#d79b00;" parent="Y9iKx76CtUBVopKiLYjm-22" vertex="1">
          <mxGeometry x="945" y="105" width="655" height="60" as="geometry" />
        </mxCell>
        <mxCell id="Y9iKx76CtUBVopKiLYjm-29" style="edgeStyle=orthogonalEdgeStyle;rounded=0;orthogonalLoop=1;jettySize=auto;html=1;exitX=0.5;exitY=0;exitDx=0;exitDy=0;entryX=0.818;entryY=0.983;entryDx=0;entryDy=0;entryPerimeter=0;" parent="Y9iKx76CtUBVopKiLYjm-22" source="Y9iKx76CtUBVopKiLYjm-16" target="Y9iKx76CtUBVopKiLYjm-23" edge="1">
          <mxGeometry relative="1" as="geometry" />
        </mxCell>
        <mxCell id="Y9iKx76CtUBVopKiLYjm-16" value="System" style="rounded=1;whiteSpace=wrap;html=1;fillColor=#fad9d5;strokeColor=#ae4132;" parent="Y9iKx76CtUBVopKiLYjm-22" vertex="1">
          <mxGeometry x="1670" y="105" width="120" height="60" as="geometry" />
        </mxCell>
        <mxCell id="Y9iKx76CtUBVopKiLYjm-17" value="" style="endArrow=classic;startArrow=classic;html=1;rounded=0;exitX=1;exitY=0.5;exitDx=0;exitDy=0;entryX=0;entryY=0.5;entryDx=0;entryDy=0;" parent="Y9iKx76CtUBVopKiLYjm-22" source="Y9iKx76CtUBVopKiLYjm-1" target="Y9iKx76CtUBVopKiLYjm-7" edge="1">
          <mxGeometry width="50" height="50" relative="1" as="geometry">
            <mxPoint x="580" y="110" as="sourcePoint" />
            <mxPoint x="630" y="60" as="targetPoint" />
          </mxGeometry>
        </mxCell>
        <mxCell id="Y9iKx76CtUBVopKiLYjm-19" value="" style="endArrow=classic;startArrow=classic;html=1;rounded=0;exitX=1;exitY=0.5;exitDx=0;exitDy=0;entryX=0;entryY=0.5;entryDx=0;entryDy=0;" parent="Y9iKx76CtUBVopKiLYjm-22" source="Y9iKx76CtUBVopKiLYjm-7" target="Y9iKx76CtUBVopKiLYjm-8" edge="1">
          <mxGeometry width="50" height="50" relative="1" as="geometry">
            <mxPoint x="540" y="40" as="sourcePoint" />
            <mxPoint x="675" y="40" as="targetPoint" />
          </mxGeometry>
        </mxCell>
        <mxCell id="Y9iKx76CtUBVopKiLYjm-20" value="" style="endArrow=classic;startArrow=classic;html=1;rounded=0;exitX=1;exitY=0.5;exitDx=0;exitDy=0;entryX=0;entryY=0.5;entryDx=0;entryDy=0;" parent="Y9iKx76CtUBVopKiLYjm-22" source="Y9iKx76CtUBVopKiLYjm-8" target="Y9iKx76CtUBVopKiLYjm-16" edge="1">
          <mxGeometry width="50" height="50" relative="1" as="geometry">
            <mxPoint x="895" y="40" as="sourcePoint" />
            <mxPoint x="955" y="40" as="targetPoint" />
          </mxGeometry>
        </mxCell>
        <mxCell id="Y9iKx76CtUBVopKiLYjm-23" value="Vehicle Interface" style="rounded=1;whiteSpace=wrap;html=1;fillColor=#b0e3e6;strokeColor=#0e8088;" parent="Y9iKx76CtUBVopKiLYjm-22" vertex="1">
          <mxGeometry x="1460" y="20" width="330" height="60" as="geometry" />
        </mxCell>
        <mxCell id="Y9iKx76CtUBVopKiLYjm-24" value="" style="endArrow=classic;html=1;rounded=0;entryX=0.209;entryY=1.017;entryDx=0;entryDy=0;entryPerimeter=0;exitX=0.892;exitY=0;exitDx=0;exitDy=0;exitPerimeter=0;" parent="Y9iKx76CtUBVopKiLYjm-22" source="Y9iKx76CtUBVopKiLYjm-8" target="Y9iKx76CtUBVopKiLYjm-23" edge="1">
          <mxGeometry width="50" height="50" relative="1" as="geometry">
            <mxPoint x="1529" y="110" as="sourcePoint" />
            <mxPoint x="1530" y="110" as="targetPoint" />
          </mxGeometry>
        </mxCell>
      </root>
    </mxGraphModel>
  </diagram>
</mxfile>
